# xmcd
#
# Track frame offsets: 
#        150
#        17605
#        32675
#        45218
#        65570
#        83785
#        102410
#        117263
#        119460
#        134515
#        149523
#
# Disc length: 2237 seconds
#
# Revision: 0
# Processed by: cddbd v1.5.2PL0 Copyright (c) Steve Scherf et al.
# Submitted via: ExactAudioCopy v0.99pb4
#
DISCID=9508bb0b
DTITLE=Lisa Koch - Colorblind Blues
DYEAR=1991
DGENRE=Indie
TTITLE0=Sister Hollywood
TTITLE1=Colorblind Blues
TTITLE2=Summer Song
TTITLE3=All Night Long
TTITLE4=Beaver Cleaver Fever
TTITLE5=Light Of A Memory
TTITLE6=Easy Lovin' You
TTITLE7=Woppafella
TTITLE8=Hickey
TTITLE9=Hungry
TTITLE10=Stay For The Ride
EXTD=
EXTT0=
EXTT1=
EXTT2=
EXTT3=
EXTT4=
EXTT5=
EXTT6=
EXTT7=
EXTT8=
EXTT9=
EXTT10=
PLAYORDER=
